<svg width="1600" height="400" viewBox="0 0 1600 400" fill="none" xmlns="http://www.w3.org/2000/svg">
<rect width="1600" height="400" fill="#152822"/>
<path d="M161 199.996C161 198.401 160.215 196.908 158.897 196.004L154.892 193.255L158.897 190.505C160.215 189.602 161 188.109 161 186.513C161 184.917 160.215 183.425 158.897 182.52L131.033 163.397C128.322 161.534 124.678 161.534 121.966 163.397L94.1029 182.523C92.7848 183.427 92 184.919 92 186.515C92 188.111 92.7848 189.603 94.1029 190.508L98.1085 193.257L94.1029 196.006C92.7848 196.91 92 198.403 92 199.999C92 201.595 92.7848 203.087 94.1029 203.991L98.1085 206.74L94.1029 209.49C92.7848 210.393 92 211.886 92 213.482C92 215.078 92.7848 216.57 94.1029 217.475L121.967 236.601C123.322 237.532 124.912 238 126.5 238C128.088 238 129.678 237.533 131.033 236.601L158.897 217.475C160.215 216.571 161 215.078 161 213.482C161 211.886 160.215 210.394 158.897 209.49L154.892 206.74L158.897 203.991C160.215 203.088 161 201.595 161 199.999V199.996ZM95.5179 188.45C94.8709 188.006 94.5007 187.299 94.5007 186.515C94.5007 185.732 94.8709 185.024 95.5179 184.581L123.385 165.454C125.248 164.174 127.753 164.174 129.615 165.454L157.482 184.581C158.129 185.024 158.499 185.732 158.499 186.515C158.499 187.299 158.129 188.006 157.482 188.45L152.687 191.74L131.034 176.878C128.324 175.015 124.679 175.015 121.967 176.878L100.314 191.74L95.5191 188.45H95.5179ZM121.967 209.633C123.322 210.564 124.912 211.032 126.5 211.032C128.088 211.032 129.678 210.565 131.033 209.633L142.865 201.512L150.479 206.738L129.615 221.059C127.752 222.339 125.247 222.339 123.385 221.059L102.521 206.738L110.135 201.512L121.967 209.633ZM112.341 199.996L123.385 192.417C125.248 191.136 127.753 191.136 129.615 192.417L140.659 199.996L129.615 207.575C127.752 208.857 125.247 208.857 123.385 207.575L112.341 199.996ZM131.033 190.359C128.322 188.496 124.678 188.496 121.966 190.359L110.134 198.48L102.52 193.255L123.383 178.934C125.247 177.652 127.752 177.652 129.614 178.934L150.477 193.255L142.864 198.48L131.032 190.359H131.033ZM95.5179 201.932C94.8709 201.488 94.5007 200.781 94.5007 199.997C94.5007 199.214 94.8709 198.507 95.5179 198.063L100.313 194.773L107.927 199.999L100.313 205.225L95.5179 201.934V201.932ZM157.482 211.544C158.129 211.988 158.499 212.695 158.499 213.479C158.499 214.262 158.129 214.969 157.482 215.413L129.615 234.54C127.752 235.821 125.247 235.821 123.385 234.54L95.5179 215.413C94.8709 214.969 94.5007 214.262 94.5007 213.479C94.5007 212.695 94.8709 211.988 95.5179 211.544L100.313 208.254L121.966 223.116C123.321 224.046 124.911 224.514 126.499 224.514C128.086 224.514 129.676 224.048 131.032 223.116L152.684 208.254L157.48 211.544H157.482ZM157.482 201.932L152.687 205.222L145.073 199.996L152.687 194.77L157.482 198.06C158.129 198.504 158.499 199.211 158.499 199.995C158.499 200.779 158.129 201.486 157.482 201.93V201.932Z" fill="white"/>
<path d="M180.52 221V178.4H185.68V199.58L204.82 178.4H211.36L194.68 196.88L212.5 221H206.2L191.2 200.72L185.68 206.78V221H180.52ZM227.845 221.72C224.925 221.72 222.365 221.04 220.165 219.68C217.965 218.32 216.265 216.4 215.065 213.92C213.865 211.4 213.265 208.46 213.265 205.1C213.265 201.7 213.865 198.76 215.065 196.28C216.265 193.8 217.965 191.88 220.165 190.52C222.365 189.16 224.925 188.48 227.845 188.48C230.765 188.48 233.305 189.16 235.465 190.52C237.665 191.88 239.365 193.8 240.565 196.28C241.765 198.76 242.365 201.7 242.365 205.1C242.365 208.46 241.765 211.4 240.565 213.92C239.365 216.4 237.665 218.32 235.465 219.68C233.305 221.04 230.765 221.72 227.845 221.72ZM227.845 216.92C230.765 216.92 233.025 215.88 234.625 213.8C236.265 211.68 237.085 208.78 237.085 205.1C237.085 201.42 236.265 198.54 234.625 196.46C233.025 194.34 230.765 193.28 227.845 193.28C224.925 193.28 222.645 194.34 221.005 196.46C219.365 198.54 218.545 201.42 218.545 205.1C218.545 208.78 219.365 211.68 221.005 213.8C222.645 215.88 224.925 216.92 227.845 216.92ZM249.234 221V189.2H253.854L254.034 197.3L253.434 196.76C253.834 194.88 254.534 193.34 255.534 192.14C256.534 190.9 257.734 189.98 259.134 189.38C260.574 188.78 262.114 188.48 263.754 188.48C266.194 188.48 268.194 189.02 269.754 190.1C271.354 191.18 272.534 192.64 273.294 194.48C274.094 196.28 274.494 198.3 274.494 200.54V221H269.454V201.98C269.454 200.02 269.214 198.38 268.734 197.06C268.294 195.7 267.574 194.68 266.574 194C265.574 193.28 264.274 192.92 262.674 192.92C260.234 192.92 258.214 193.7 256.614 195.26C255.054 196.78 254.274 199.02 254.274 201.98V221H249.234ZM293.335 221C290.455 221 288.315 220.34 286.915 219.02C285.555 217.7 284.875 215.64 284.875 212.84V181.76H289.915V212.72C289.915 214.16 290.235 215.16 290.875 215.72C291.515 216.28 292.495 216.56 293.815 216.56H298.375V221H293.335ZM280.195 193.64V189.2H298.375V193.64H280.195ZM316.673 221.72C313.673 221.72 311.073 221.04 308.873 219.68C306.713 218.32 305.033 216.4 303.833 213.92C302.673 211.4 302.093 208.46 302.093 205.1C302.093 201.74 302.673 198.82 303.833 196.34C305.033 193.86 306.693 191.94 308.813 190.58C310.973 189.18 313.513 188.48 316.433 188.48C319.193 188.48 321.633 189.14 323.753 190.46C325.873 191.74 327.513 193.62 328.673 196.1C329.873 198.58 330.473 201.6 330.473 205.16V206.66H307.373C307.573 210.06 308.473 212.62 310.073 214.34C311.713 216.06 313.913 216.92 316.673 216.92C318.753 216.92 320.453 216.44 321.773 215.48C323.133 214.48 324.073 213.18 324.593 211.58L329.993 212C329.153 214.84 327.553 217.18 325.193 219.02C322.873 220.82 320.033 221.72 316.673 221.72ZM307.373 202.22H324.953C324.713 199.14 323.813 196.88 322.253 195.44C320.733 194 318.793 193.28 316.433 193.28C313.993 193.28 311.973 194.04 310.373 195.56C308.813 197.04 307.813 199.26 307.373 202.22ZM332.918 221L344.618 204.68L333.518 189.2H339.398L347.738 201.2L355.838 189.2H361.838L350.858 204.8L362.378 221H356.498L347.738 208.16L338.918 221H332.918ZM378.471 221C375.591 221 373.451 220.34 372.051 219.02C370.691 217.7 370.011 215.64 370.011 212.84V181.76H375.051V212.72C375.051 214.16 375.371 215.16 376.011 215.72C376.651 216.28 377.631 216.56 378.951 216.56H383.511V221H378.471ZM365.331 193.64V189.2H383.511V193.64H365.331Z" fill="white"/>
<path d="M535.8 214L546.04 185.6H550.68L560.92 214H557.16L554.32 205.92H542.4L539.56 214H535.8ZM543.56 202.56H553.16L548.36 188.6L543.56 202.56ZM572.256 220.48C570.736 220.48 569.362 220.227 568.136 219.72C566.909 219.213 565.882 218.493 565.056 217.56C564.229 216.627 563.669 215.547 563.376 214.32L566.896 214.08C567.216 215.067 567.776 215.84 568.576 216.4C569.402 216.987 570.629 217.28 572.256 217.28C574.176 217.28 575.642 216.893 576.656 216.12C577.696 215.347 578.216 214.187 578.216 212.64V209.2C577.709 210.32 576.896 211.213 575.776 211.88C574.656 212.547 573.402 212.88 572.016 212.88C570.229 212.88 568.629 212.44 567.216 211.56C565.829 210.68 564.736 209.467 563.936 207.92C563.162 206.373 562.776 204.6 562.776 202.6C562.776 200.573 563.162 198.8 563.936 197.28C564.709 195.733 565.776 194.52 567.136 193.64C568.522 192.76 570.096 192.32 571.856 192.32C573.349 192.32 574.682 192.667 575.856 193.36C577.056 194.053 577.896 194.987 578.376 196.16V192.8H581.576V212.56C581.576 214.213 581.202 215.627 580.456 216.8C579.709 218 578.642 218.907 577.256 219.52C575.869 220.16 574.202 220.48 572.256 220.48ZM572.176 209.68C573.989 209.68 575.442 209.053 576.536 207.8C577.629 206.52 578.189 204.787 578.216 202.6C578.242 201.133 578.002 199.88 577.496 198.84C577.016 197.773 576.309 196.96 575.376 196.4C574.469 195.813 573.402 195.52 572.176 195.52C570.309 195.52 568.856 196.16 567.816 197.44C566.802 198.693 566.296 200.413 566.296 202.6C566.296 204.787 566.816 206.52 567.856 207.8C568.922 209.053 570.362 209.68 572.176 209.68ZM595.855 214.48C593.855 214.48 592.122 214.027 590.655 213.12C589.215 212.213 588.095 210.933 587.295 209.28C586.522 207.6 586.135 205.64 586.135 203.4C586.135 201.16 586.522 199.213 587.295 197.56C588.095 195.907 589.202 194.627 590.615 193.72C592.055 192.787 593.748 192.32 595.695 192.32C597.535 192.32 599.162 192.76 600.575 193.64C601.988 194.493 603.082 195.747 603.855 197.4C604.655 199.053 605.055 201.067 605.055 203.44V204.44H589.655C589.788 206.707 590.388 208.413 591.455 209.56C592.548 210.707 594.015 211.28 595.855 211.28C597.242 211.28 598.375 210.96 599.255 210.32C600.162 209.653 600.788 208.787 601.135 207.72L604.735 208C604.175 209.893 603.108 211.453 601.535 212.68C599.988 213.88 598.095 214.48 595.855 214.48ZM589.655 201.48H601.375C601.215 199.427 600.615 197.92 599.575 196.96C598.562 196 597.268 195.52 595.695 195.52C594.068 195.52 592.722 196.027 591.655 197.04C590.615 198.027 589.948 199.507 589.655 201.48ZM609.606 214V192.8H612.686L612.806 198.2L612.406 197.84C612.673 196.587 613.14 195.56 613.806 194.76C614.473 193.933 615.273 193.32 616.206 192.92C617.166 192.52 618.193 192.32 619.286 192.32C620.913 192.32 622.246 192.68 623.286 193.4C624.353 194.12 625.14 195.093 625.646 196.32C626.18 197.52 626.446 198.867 626.446 200.36V214H623.086V201.32C623.086 200.013 622.926 198.92 622.606 198.04C622.313 197.133 621.833 196.453 621.166 196C620.5 195.52 619.633 195.28 618.566 195.28C616.94 195.28 615.593 195.8 614.526 196.84C613.486 197.853 612.966 199.347 612.966 201.32V214H609.606ZM639.007 214C637.087 214 635.66 213.56 634.727 212.68C633.82 211.8 633.367 210.427 633.367 208.56V187.84H636.727V208.48C636.727 209.44 636.94 210.107 637.367 210.48C637.794 210.853 638.447 211.04 639.327 211.04H642.367V214H639.007ZM630.247 195.76V192.8H642.367V195.76H630.247ZM644.26 203.92V200.76H657.5V203.92H644.26ZM662.938 214V185.6H680.778V188.96H664.658L666.378 187.2V200.24L664.658 198.48H680.058V201.76H664.658L666.378 200V214H662.938ZM685.27 214V192.8H688.63V214H685.27ZM685.19 189.48V185.56H688.71V189.48H685.19ZM695.427 214V192.8H698.387L698.547 198.16L698.227 198.04C698.493 196.227 699.067 194.907 699.947 194.08C700.853 193.227 702.053 192.8 703.547 192.8H705.627V196H703.587C702.52 196 701.627 196.2 700.907 196.6C700.213 196.973 699.68 197.547 699.307 198.32C698.96 199.067 698.787 200.027 698.787 201.2V214H695.427ZM716.701 214.48C714.808 214.48 713.195 214.173 711.861 213.56C710.555 212.947 709.528 212.107 708.781 211.04C708.061 209.947 707.648 208.707 707.541 207.32L711.061 207.08C711.275 208.36 711.821 209.387 712.701 210.16C713.581 210.907 714.915 211.28 716.701 211.28C718.141 211.28 719.288 211.053 720.141 210.6C721.021 210.12 721.461 209.36 721.461 208.32C721.461 207.76 721.328 207.293 721.061 206.92C720.795 206.547 720.275 206.227 719.501 205.96C718.728 205.667 717.581 205.387 716.061 205.12C714.035 204.747 712.435 204.293 711.261 203.76C710.115 203.2 709.288 202.52 708.781 201.72C708.301 200.893 708.061 199.92 708.061 198.8C708.061 196.907 708.755 195.36 710.141 194.16C711.528 192.933 713.501 192.32 716.061 192.32C717.795 192.32 719.248 192.64 720.421 193.28C721.621 193.893 722.555 194.72 723.221 195.76C723.915 196.773 724.368 197.893 724.581 199.12L721.061 199.36C720.901 198.613 720.608 197.96 720.181 197.4C719.755 196.813 719.195 196.36 718.501 196.04C717.808 195.693 716.981 195.52 716.021 195.52C714.501 195.52 713.381 195.813 712.661 196.4C711.941 196.987 711.581 197.733 711.581 198.64C711.581 199.333 711.741 199.907 712.061 200.36C712.408 200.787 712.955 201.147 713.701 201.44C714.448 201.707 715.448 201.947 716.701 202.16C718.861 202.533 720.541 202.987 721.741 203.52C722.941 204.053 723.781 204.707 724.261 205.48C724.741 206.253 724.981 207.2 724.981 208.32C724.981 209.627 724.608 210.747 723.861 211.68C723.141 212.587 722.155 213.28 720.901 213.76C719.675 214.24 718.275 214.48 716.701 214.48ZM736.507 214C734.587 214 733.16 213.56 732.227 212.68C731.32 211.8 730.867 210.427 730.867 208.56V187.84H734.227V208.48C734.227 209.44 734.44 210.107 734.867 210.48C735.294 210.853 735.947 211.04 736.827 211.04H739.867V214H736.507ZM727.747 195.76V192.8H739.867V195.76H727.747ZM765.771 214.64C763.238 214.64 761.011 214.053 759.091 212.88C757.171 211.68 755.678 209.973 754.611 207.76C753.544 205.547 753.011 202.907 753.011 199.84C753.011 196.773 753.544 194.133 754.611 191.92C755.678 189.68 757.171 187.96 759.091 186.76C761.011 185.56 763.238 184.96 765.771 184.96C769.211 184.96 771.878 185.827 773.771 187.56C775.664 189.293 776.904 191.653 777.491 194.64L773.851 194.88C773.451 192.853 772.598 191.253 771.291 190.08C769.984 188.907 768.144 188.32 765.771 188.32C763.958 188.32 762.358 188.787 760.971 189.72C759.611 190.627 758.544 191.947 757.771 193.68C756.998 195.387 756.611 197.44 756.611 199.84C756.611 202.24 756.998 204.293 757.771 206C758.544 207.707 759.611 209.013 760.971 209.92C762.358 210.827 763.958 211.28 765.771 211.28C768.251 211.28 770.171 210.64 771.531 209.36C772.891 208.053 773.744 206.293 774.091 204.08L777.731 204.32C777.384 206.373 776.704 208.173 775.691 209.72C774.678 211.267 773.331 212.48 771.651 213.36C769.998 214.213 768.038 214.64 765.771 214.64ZM782.223 214V192.8H785.183L785.343 198.16L785.023 198.04C785.29 196.227 785.863 194.907 786.743 194.08C787.65 193.227 788.85 192.8 790.343 192.8H792.423V196H790.383C789.317 196 788.423 196.2 787.703 196.6C787.01 196.973 786.477 197.547 786.103 198.32C785.757 199.067 785.583 200.027 785.583 201.2V214H782.223ZM804.058 214.48C802.058 214.48 800.325 214.027 798.858 213.12C797.418 212.213 796.298 210.933 795.498 209.28C794.725 207.6 794.338 205.64 794.338 203.4C794.338 201.16 794.725 199.213 795.498 197.56C796.298 195.907 797.405 194.627 798.818 193.72C800.258 192.787 801.951 192.32 803.898 192.32C805.738 192.32 807.365 192.76 808.778 193.64C810.191 194.493 811.285 195.747 812.058 197.4C812.858 199.053 813.258 201.067 813.258 203.44V204.44H797.858C797.991 206.707 798.591 208.413 799.658 209.56C800.751 210.707 802.218 211.28 804.058 211.28C805.445 211.28 806.578 210.96 807.458 210.32C808.365 209.653 808.991 208.787 809.338 207.72L812.938 208C812.378 209.893 811.311 211.453 809.738 212.68C808.191 213.88 806.298 214.48 804.058 214.48ZM797.858 201.48H809.578C809.418 199.427 808.818 197.92 807.778 196.96C806.765 196 805.471 195.52 803.898 195.52C802.271 195.52 800.925 196.027 799.858 197.04C798.818 198.027 798.151 199.507 797.858 201.48ZM825.329 214.48C823.489 214.48 821.889 214.027 820.529 213.12C819.196 212.213 818.169 210.933 817.449 209.28C816.729 207.627 816.369 205.667 816.369 203.4C816.369 201.133 816.729 199.173 817.449 197.52C818.169 195.867 819.196 194.587 820.529 193.68C821.889 192.773 823.489 192.32 825.329 192.32C826.743 192.32 828.036 192.627 829.209 193.24C830.383 193.827 831.263 194.667 831.849 195.76V185.6H835.209V214H832.169L832.049 210.8C831.463 211.947 830.569 212.853 829.369 213.52C828.169 214.16 826.823 214.48 825.329 214.48ZM826.009 211.28C827.263 211.28 828.316 210.96 829.169 210.32C830.049 209.68 830.716 208.773 831.169 207.6C831.623 206.4 831.849 205 831.849 203.4C831.849 201.747 831.623 200.333 831.169 199.16C830.716 197.987 830.049 197.093 829.169 196.48C828.316 195.84 827.263 195.52 826.009 195.52C824.143 195.52 822.649 196.227 821.529 197.64C820.436 199.027 819.889 200.947 819.889 203.4C819.889 205.827 820.436 207.747 821.529 209.16C822.649 210.573 824.143 211.28 826.009 211.28ZM849.488 214.48C847.488 214.48 845.754 214.027 844.288 213.12C842.848 212.213 841.728 210.933 840.928 209.28C840.154 207.6 839.768 205.64 839.768 203.4C839.768 201.16 840.154 199.213 840.928 197.56C841.728 195.907 842.834 194.627 844.248 193.72C845.688 192.787 847.381 192.32 849.328 192.32C851.168 192.32 852.794 192.76 854.208 193.64C855.621 194.493 856.714 195.747 857.488 197.4C858.288 199.053 858.688 201.067 858.688 203.44V204.44H843.288C843.421 206.707 844.021 208.413 845.088 209.56C846.181 210.707 847.648 211.28 849.488 211.28C850.874 211.28 852.008 210.96 852.888 210.32C853.794 209.653 854.421 208.787 854.768 207.72L858.368 208C857.808 209.893 856.741 211.453 855.168 212.68C853.621 213.88 851.728 214.48 849.488 214.48ZM843.288 201.48H855.008C854.848 199.427 854.248 197.92 853.208 196.96C852.194 196 850.901 195.52 849.328 195.52C847.701 195.52 846.354 196.027 845.288 197.04C844.248 198.027 843.581 199.507 843.288 201.48ZM863.239 214V192.8H866.319L866.439 198.2L866.039 197.84C866.306 196.587 866.772 195.56 867.439 194.76C868.106 193.933 868.906 193.32 869.839 192.92C870.799 192.52 871.826 192.32 872.919 192.32C874.546 192.32 875.879 192.68 876.919 193.4C877.986 194.12 878.772 195.093 879.279 196.32C879.812 197.52 880.079 198.867 880.079 200.36V214H876.719V201.32C876.719 200.013 876.559 198.92 876.239 198.04C875.946 197.133 875.466 196.453 874.799 196C874.132 195.52 873.266 195.28 872.199 195.28C870.572 195.28 869.226 195.8 868.159 196.84C867.119 197.853 866.599 199.347 866.599 201.32V214H863.239ZM892.64 214C890.72 214 889.293 213.56 888.36 212.68C887.453 211.8 887 210.427 887 208.56V187.84H890.36V208.48C890.36 209.44 890.573 210.107 891 210.48C891.426 210.853 892.08 211.04 892.96 211.04H896V214H892.64ZM883.88 195.76V192.8H896V195.76H883.88ZM900.309 214V192.8H903.669V214H900.309ZM900.229 189.48V185.56H903.749V189.48H900.229ZM915.404 214.48C913.218 214.48 911.471 213.973 910.164 212.96C908.884 211.947 908.244 210.533 908.244 208.72C908.244 206.907 908.778 205.48 909.844 204.44C910.911 203.4 912.604 202.667 914.924 202.24L922.444 200.84C922.444 199.053 922.018 197.72 921.164 196.84C920.338 195.96 919.084 195.52 917.404 195.52C915.938 195.52 914.778 195.853 913.924 196.52C913.071 197.16 912.484 198.093 912.164 199.32L908.604 199.04C909.004 197.04 909.964 195.427 911.484 194.2C913.031 192.947 915.004 192.32 917.404 192.32C920.124 192.32 922.204 193.093 923.644 194.64C925.084 196.16 925.804 198.267 925.804 200.96V209.72C925.804 210.2 925.884 210.547 926.044 210.76C926.231 210.947 926.524 211.04 926.924 211.04H927.764V214C927.658 214.027 927.484 214.04 927.244 214.04C927.004 214.067 926.751 214.08 926.484 214.08C925.524 214.08 924.738 213.933 924.124 213.64C923.538 213.32 923.111 212.84 922.844 212.2C922.578 211.533 922.444 210.667 922.444 209.6L922.844 209.68C922.658 210.587 922.204 211.413 921.484 212.16C920.764 212.88 919.871 213.453 918.804 213.88C917.738 214.28 916.604 214.48 915.404 214.48ZM915.724 211.52C917.138 211.52 918.338 211.253 919.324 210.72C920.338 210.16 921.111 209.413 921.644 208.48C922.178 207.52 922.444 206.453 922.444 205.28V203.76L915.564 205.04C914.124 205.307 913.124 205.72 912.564 206.28C912.031 206.813 911.764 207.52 911.764 208.4C911.764 209.387 912.111 210.16 912.804 210.72C913.524 211.253 914.498 211.52 915.724 211.52ZM935.485 214C934.258 214 933.258 213.68 932.485 213.04C931.712 212.4 931.325 211.387 931.325 210V185.6H934.685V209.72C934.685 210.147 934.792 210.48 935.005 210.72C935.245 210.933 935.578 211.04 936.005 211.04H937.845V214H935.485ZM952.469 214V185.6H957.269L966.349 210.24L975.389 185.6H980.189V214H976.749V192L968.629 214H964.029L955.909 192V214H952.469ZM992.397 214.48C990.21 214.48 988.463 213.973 987.157 212.96C985.877 211.947 985.237 210.533 985.237 208.72C985.237 206.907 985.77 205.48 986.837 204.44C987.903 203.4 989.597 202.667 991.917 202.24L999.437 200.84C999.437 199.053 999.01 197.72 998.157 196.84C997.33 195.96 996.077 195.52 994.397 195.52C992.93 195.52 991.77 195.853 990.917 196.52C990.063 197.16 989.477 198.093 989.157 199.32L985.597 199.04C985.997 197.04 986.957 195.427 988.477 194.2C990.023 192.947 991.997 192.32 994.397 192.32C997.117 192.32 999.197 193.093 1000.64 194.64C1002.08 196.16 1002.8 198.267 1002.8 200.96V209.72C1002.8 210.2 1002.88 210.547 1003.04 210.76C1003.22 210.947 1003.52 211.04 1003.92 211.04H1004.76V214C1004.65 214.027 1004.48 214.04 1004.24 214.04C1004 214.067 1003.74 214.08 1003.48 214.08C1002.52 214.08 1001.73 213.933 1001.12 213.64C1000.53 213.32 1000.1 212.84 999.837 212.2C999.57 211.533 999.437 210.667 999.437 209.6L999.837 209.68C999.65 210.587 999.197 211.413 998.477 212.16C997.757 212.88 996.863 213.453 995.797 213.88C994.73 214.28 993.597 214.48 992.397 214.48ZM992.717 211.52C994.13 211.52 995.33 211.253 996.317 210.72C997.33 210.16 998.103 209.413 998.637 208.48C999.17 207.52 999.437 206.453 999.437 205.28V203.76L992.557 205.04C991.117 205.307 990.117 205.72 989.557 206.28C989.023 206.813 988.757 207.52 988.757 208.4C988.757 209.387 989.103 210.16 989.797 210.72C990.517 211.253 991.49 211.52 992.717 211.52ZM1008.55 214V192.8H1011.63L1011.75 198.2L1011.35 197.84C1011.62 196.587 1012.08 195.56 1012.75 194.76C1013.42 193.933 1014.22 193.32 1015.15 192.92C1016.11 192.52 1017.14 192.32 1018.23 192.32C1019.86 192.32 1021.19 192.68 1022.23 193.4C1023.3 194.12 1024.08 195.093 1024.59 196.32C1025.12 197.52 1025.39 198.867 1025.39 200.36V214H1022.03V201.32C1022.03 200.013 1021.87 198.92 1021.55 198.04C1021.26 197.133 1020.78 196.453 1020.11 196C1019.44 195.52 1018.58 195.28 1017.51 195.28C1015.88 195.28 1014.54 195.8 1013.47 196.84C1012.43 197.853 1011.91 199.347 1011.91 201.32V214H1008.55ZM1037.12 214.48C1034.94 214.48 1033.19 213.973 1031.88 212.96C1030.6 211.947 1029.96 210.533 1029.96 208.72C1029.96 206.907 1030.5 205.48 1031.56 204.44C1032.63 203.4 1034.32 202.667 1036.64 202.24L1044.16 200.84C1044.16 199.053 1043.74 197.72 1042.88 196.84C1042.06 195.96 1040.8 195.52 1039.12 195.52C1037.66 195.52 1036.5 195.853 1035.64 196.52C1034.79 197.16 1034.2 198.093 1033.88 199.32L1030.32 199.04C1030.72 197.04 1031.68 195.427 1033.2 194.2C1034.75 192.947 1036.72 192.32 1039.12 192.32C1041.84 192.32 1043.92 193.093 1045.36 194.64C1046.8 196.16 1047.52 198.267 1047.52 200.96V209.72C1047.52 210.2 1047.6 210.547 1047.76 210.76C1047.95 210.947 1048.24 211.04 1048.64 211.04H1049.48V214C1049.38 214.027 1049.2 214.04 1048.96 214.04C1048.72 214.067 1048.47 214.08 1048.2 214.08C1047.24 214.08 1046.46 213.933 1045.84 213.64C1045.26 213.32 1044.83 212.84 1044.56 212.2C1044.3 211.533 1044.16 210.667 1044.16 209.6L1044.56 209.68C1044.38 210.587 1043.92 211.413 1043.2 212.16C1042.48 212.88 1041.59 213.453 1040.52 213.88C1039.46 214.28 1038.32 214.48 1037.12 214.48ZM1037.44 211.52C1038.86 211.52 1040.06 211.253 1041.04 210.72C1042.06 210.16 1042.83 209.413 1043.36 208.48C1043.9 207.52 1044.16 206.453 1044.16 205.28V203.76L1037.28 205.04C1035.84 205.307 1034.84 205.72 1034.28 206.28C1033.75 206.813 1033.48 207.52 1033.48 208.4C1033.48 209.387 1033.83 210.16 1034.52 210.72C1035.24 211.253 1036.22 211.52 1037.44 211.52ZM1061.24 220.48C1059.72 220.48 1058.35 220.227 1057.12 219.72C1055.89 219.213 1054.87 218.493 1054.04 217.56C1053.21 216.627 1052.65 215.547 1052.36 214.32L1055.88 214.08C1056.2 215.067 1056.76 215.84 1057.56 216.4C1058.39 216.987 1059.61 217.28 1061.24 217.28C1063.16 217.28 1064.63 216.893 1065.64 216.12C1066.68 215.347 1067.2 214.187 1067.2 212.64V209.2C1066.69 210.32 1065.88 211.213 1064.76 211.88C1063.64 212.547 1062.39 212.88 1061 212.88C1059.21 212.88 1057.61 212.44 1056.2 211.56C1054.81 210.68 1053.72 209.467 1052.92 207.92C1052.15 206.373 1051.76 204.6 1051.76 202.6C1051.76 200.573 1052.15 198.8 1052.92 197.28C1053.69 195.733 1054.76 194.52 1056.12 193.64C1057.51 192.76 1059.08 192.32 1060.84 192.32C1062.33 192.32 1063.67 192.667 1064.84 193.36C1066.04 194.053 1066.88 194.987 1067.36 196.16V192.8H1070.56V212.56C1070.56 214.213 1070.19 215.627 1069.44 216.8C1068.69 218 1067.63 218.907 1066.24 219.52C1064.85 220.16 1063.19 220.48 1061.24 220.48ZM1061.16 209.68C1062.97 209.68 1064.43 209.053 1065.52 207.8C1066.61 206.52 1067.17 204.787 1067.2 202.6C1067.23 201.133 1066.99 199.88 1066.48 198.84C1066 197.773 1065.29 196.96 1064.36 196.4C1063.45 195.813 1062.39 195.52 1061.16 195.52C1059.29 195.52 1057.84 196.16 1056.8 197.44C1055.79 198.693 1055.28 200.413 1055.28 202.6C1055.28 204.787 1055.8 206.52 1056.84 207.8C1057.91 209.053 1059.35 209.68 1061.16 209.68ZM1084.84 214.48C1082.84 214.48 1081.11 214.027 1079.64 213.12C1078.2 212.213 1077.08 210.933 1076.28 209.28C1075.51 207.6 1075.12 205.64 1075.12 203.4C1075.12 201.16 1075.51 199.213 1076.28 197.56C1077.08 195.907 1078.19 194.627 1079.6 193.72C1081.04 192.787 1082.73 192.32 1084.68 192.32C1086.52 192.32 1088.15 192.76 1089.56 193.64C1090.97 194.493 1092.07 195.747 1092.84 197.4C1093.64 199.053 1094.04 201.067 1094.04 203.44V204.44H1078.64C1078.77 206.707 1079.37 208.413 1080.44 209.56C1081.53 210.707 1083 211.28 1084.84 211.28C1086.23 211.28 1087.36 210.96 1088.24 210.32C1089.15 209.653 1089.77 208.787 1090.12 207.72L1093.72 208C1093.16 209.893 1092.09 211.453 1090.52 212.68C1088.97 213.88 1087.08 214.48 1084.84 214.48ZM1078.64 201.48H1090.36C1090.2 199.427 1089.6 197.92 1088.56 196.96C1087.55 196 1086.25 195.52 1084.68 195.52C1083.05 195.52 1081.71 196.027 1080.64 197.04C1079.6 198.027 1078.93 199.507 1078.64 201.48ZM1098.59 214V192.8H1101.67L1101.79 198.16L1101.31 198C1101.55 196.827 1101.96 195.827 1102.55 195C1103.16 194.147 1103.91 193.493 1104.79 193.04C1105.67 192.56 1106.64 192.32 1107.71 192.32C1109.55 192.32 1111.04 192.827 1112.19 193.84C1113.36 194.853 1114.1 196.267 1114.39 198.08L1113.75 198.04C1113.96 196.813 1114.35 195.787 1114.91 194.96C1115.5 194.107 1116.24 193.453 1117.15 193C1118.06 192.547 1119.1 192.32 1120.27 192.32C1121.79 192.32 1123.07 192.64 1124.11 193.28C1125.15 193.893 1125.94 194.8 1126.47 196C1127 197.2 1127.27 198.653 1127.27 200.36V214H1123.91V201.08C1123.91 199.16 1123.54 197.72 1122.79 196.76C1122.04 195.773 1120.94 195.28 1119.47 195.28C1118.48 195.28 1117.62 195.52 1116.87 196C1116.15 196.48 1115.59 197.173 1115.19 198.08C1114.79 198.96 1114.59 200.04 1114.59 201.32V214H1111.23V201.32C1111.23 199.427 1110.9 197.947 1110.23 196.88C1109.56 195.813 1108.44 195.28 1106.87 195.28C1105.88 195.28 1105.02 195.52 1104.27 196C1103.55 196.48 1102.98 197.173 1102.55 198.08C1102.15 198.987 1101.95 200.067 1101.95 201.32V214H1098.59ZM1141.48 214.48C1139.48 214.48 1137.75 214.027 1136.28 213.12C1134.84 212.213 1133.72 210.933 1132.92 209.28C1132.15 207.6 1131.76 205.64 1131.76 203.4C1131.76 201.16 1132.15 199.213 1132.92 197.56C1133.72 195.907 1134.83 194.627 1136.24 193.72C1137.68 192.787 1139.37 192.32 1141.32 192.32C1143.16 192.32 1144.79 192.76 1146.2 193.64C1147.61 194.493 1148.71 195.747 1149.48 197.4C1150.28 199.053 1150.68 201.067 1150.68 203.44V204.44H1135.28C1135.41 206.707 1136.01 208.413 1137.08 209.56C1138.17 210.707 1139.64 211.28 1141.48 211.28C1142.87 211.28 1144 210.96 1144.88 210.32C1145.79 209.653 1146.41 208.787 1146.76 207.72L1150.36 208C1149.8 209.893 1148.73 211.453 1147.16 212.68C1145.61 213.88 1143.72 214.48 1141.48 214.48ZM1135.28 201.48H1147C1146.84 199.427 1146.24 197.92 1145.2 196.96C1144.19 196 1142.89 195.52 1141.32 195.52C1139.69 195.52 1138.35 196.027 1137.28 197.04C1136.24 198.027 1135.57 199.507 1135.28 201.48ZM1155.23 214V192.8H1158.31L1158.43 198.2L1158.03 197.84C1158.3 196.587 1158.76 195.56 1159.43 194.76C1160.1 193.933 1160.9 193.32 1161.83 192.92C1162.79 192.52 1163.82 192.32 1164.91 192.32C1166.54 192.32 1167.87 192.68 1168.91 193.4C1169.98 194.12 1170.76 195.093 1171.27 196.32C1171.8 197.52 1172.07 198.867 1172.07 200.36V214H1168.71V201.32C1168.71 200.013 1168.55 198.92 1168.23 198.04C1167.94 197.133 1167.46 196.453 1166.79 196C1166.12 195.52 1165.26 195.28 1164.19 195.28C1162.56 195.28 1161.22 195.8 1160.15 196.84C1159.11 197.853 1158.59 199.347 1158.59 201.32V214H1155.23ZM1184.63 214C1182.71 214 1181.29 213.56 1180.35 212.68C1179.45 211.8 1178.99 210.427 1178.99 208.56V187.84H1182.35V208.48C1182.35 209.44 1182.57 210.107 1182.99 210.48C1183.42 210.853 1184.07 211.04 1184.95 211.04H1187.99V214H1184.63ZM1175.87 195.76V192.8H1187.99V195.76H1175.87ZM1200.14 214L1210.38 185.6H1215.02L1225.26 214H1221.5L1218.66 205.92H1206.74L1203.9 214H1200.14ZM1207.9 202.56H1217.5L1212.7 188.6L1207.9 202.56ZM1228.47 214V192.8H1231.55L1231.67 198.2L1231.27 197.84C1231.54 196.587 1232.01 195.56 1232.67 194.76C1233.34 193.933 1234.14 193.32 1235.07 192.92C1236.03 192.52 1237.06 192.32 1238.15 192.32C1239.78 192.32 1241.11 192.68 1242.15 193.4C1243.22 194.12 1244.01 195.093 1244.51 196.32C1245.05 197.52 1245.31 198.867 1245.31 200.36V214H1241.95V201.32C1241.95 200.013 1241.79 198.92 1241.47 198.04C1241.18 197.133 1240.7 196.453 1240.03 196C1239.37 195.52 1238.5 195.28 1237.43 195.28C1235.81 195.28 1234.46 195.8 1233.39 196.84C1232.35 197.853 1231.83 199.347 1231.83 201.32V214H1228.47ZM1258.77 214.48C1256.93 214.48 1255.33 214.027 1253.97 213.12C1252.63 212.213 1251.61 210.933 1250.89 209.28C1250.17 207.627 1249.81 205.667 1249.81 203.4C1249.81 201.133 1250.17 199.173 1250.89 197.52C1251.61 195.867 1252.63 194.587 1253.97 193.68C1255.33 192.773 1256.93 192.32 1258.77 192.32C1260.18 192.32 1261.47 192.627 1262.65 193.24C1263.82 193.827 1264.7 194.667 1265.29 195.76V185.6H1268.65V214H1265.61L1265.49 210.8C1264.9 211.947 1264.01 212.853 1262.81 213.52C1261.61 214.16 1260.26 214.48 1258.77 214.48ZM1259.45 211.28C1260.7 211.28 1261.75 210.96 1262.61 210.32C1263.49 209.68 1264.15 208.773 1264.61 207.6C1265.06 206.4 1265.29 205 1265.29 203.4C1265.29 201.747 1265.06 200.333 1264.61 199.16C1264.15 197.987 1263.49 197.093 1262.61 196.48C1261.75 195.84 1260.7 195.52 1259.45 195.52C1257.58 195.52 1256.09 196.227 1254.97 197.64C1253.87 199.027 1253.33 200.947 1253.33 203.4C1253.33 205.827 1253.87 207.747 1254.97 209.16C1256.09 210.573 1257.58 211.28 1259.45 211.28ZM1296.32 214.64C1293.65 214.64 1291.37 214 1289.48 212.72C1287.58 211.44 1286.13 209.693 1285.12 207.48C1284.13 205.24 1283.64 202.693 1283.64 199.84C1283.64 196.987 1284.14 194.44 1285.16 192.2C1286.17 189.96 1287.62 188.2 1289.52 186.92C1291.44 185.613 1293.73 184.96 1296.4 184.96C1298.66 184.96 1300.57 185.373 1302.12 186.2C1303.69 187.027 1304.93 188.147 1305.84 189.56C1306.77 190.973 1307.41 192.56 1307.76 194.32L1304.16 194.56C1303.81 192.72 1303.04 191.227 1301.84 190.08C1300.64 188.907 1298.82 188.32 1296.4 188.32C1294.24 188.32 1292.48 188.853 1291.12 189.92C1289.78 190.987 1288.8 192.4 1288.16 194.16C1287.54 195.893 1287.24 197.787 1287.24 199.84C1287.24 202 1287.56 203.947 1288.2 205.68C1288.84 207.387 1289.84 208.747 1291.2 209.76C1292.56 210.773 1294.29 211.28 1296.4 211.28C1298.08 211.28 1299.53 210.907 1300.76 210.16C1301.98 209.387 1302.93 208.36 1303.6 207.08C1304.26 205.8 1304.61 204.413 1304.64 202.92H1296.48V199.64H1307.84V214H1305.28L1305.04 207.44L1305.52 208C1305.2 209.28 1304.58 210.427 1303.68 211.44C1302.77 212.427 1301.68 213.213 1300.4 213.8C1299.14 214.36 1297.78 214.64 1296.32 214.64ZM1321.71 214.48C1319.77 214.48 1318.06 214.027 1316.59 213.12C1315.13 212.213 1313.99 210.933 1313.19 209.28C1312.39 207.6 1311.99 205.64 1311.99 203.4C1311.99 201.133 1312.39 199.173 1313.19 197.52C1313.99 195.867 1315.13 194.587 1316.59 193.68C1318.06 192.773 1319.77 192.32 1321.71 192.32C1323.66 192.32 1325.35 192.773 1326.79 193.68C1328.26 194.587 1329.39 195.867 1330.19 197.52C1330.99 199.173 1331.39 201.133 1331.39 203.4C1331.39 205.64 1330.99 207.6 1330.19 209.28C1329.39 210.933 1328.26 212.213 1326.79 213.12C1325.35 214.027 1323.66 214.48 1321.71 214.48ZM1321.71 211.28C1323.66 211.28 1325.17 210.587 1326.23 209.2C1327.33 207.787 1327.87 205.853 1327.87 203.4C1327.87 200.947 1327.33 199.027 1326.23 197.64C1325.17 196.227 1323.66 195.52 1321.71 195.52C1319.77 195.52 1318.25 196.227 1317.15 197.64C1316.06 199.027 1315.51 200.947 1315.51 203.4C1315.51 205.853 1316.06 207.787 1317.15 209.2C1318.25 210.587 1319.77 211.28 1321.71 211.28ZM1340.75 214L1333.03 192.8H1336.71L1342.87 210.56L1349.03 192.8H1352.71L1344.99 214H1340.75ZM1364.02 214.48C1362.02 214.48 1360.29 214.027 1358.82 213.12C1357.38 212.213 1356.26 210.933 1355.46 209.28C1354.69 207.6 1354.3 205.64 1354.3 203.4C1354.3 201.16 1354.69 199.213 1355.46 197.56C1356.26 195.907 1357.37 194.627 1358.78 193.72C1360.22 192.787 1361.91 192.32 1363.86 192.32C1365.7 192.32 1367.33 192.76 1368.74 193.64C1370.15 194.493 1371.25 195.747 1372.02 197.4C1372.82 199.053 1373.22 201.067 1373.22 203.44V204.44H1357.82C1357.95 206.707 1358.55 208.413 1359.62 209.56C1360.71 210.707 1362.18 211.28 1364.02 211.28C1365.41 211.28 1366.54 210.96 1367.42 210.32C1368.33 209.653 1368.95 208.787 1369.3 207.72L1372.9 208C1372.34 209.893 1371.27 211.453 1369.7 212.68C1368.15 213.88 1366.26 214.48 1364.02 214.48ZM1357.82 201.48H1369.54C1369.38 199.427 1368.78 197.92 1367.74 196.96C1366.73 196 1365.43 195.52 1363.86 195.52C1362.23 195.52 1360.89 196.027 1359.82 197.04C1358.78 198.027 1358.11 199.507 1357.82 201.48ZM1377.77 214V192.8H1380.73L1380.89 198.16L1380.57 198.04C1380.84 196.227 1381.41 194.907 1382.29 194.08C1383.2 193.227 1384.4 192.8 1385.89 192.8H1387.97V196H1385.93C1384.86 196 1383.97 196.2 1383.25 196.6C1382.56 196.973 1382.02 197.547 1381.65 198.32C1381.3 199.067 1381.13 200.027 1381.13 201.2V214H1377.77ZM1391.33 214V192.8H1394.41L1394.53 198.2L1394.13 197.84C1394.39 196.587 1394.86 195.56 1395.53 194.76C1396.19 193.933 1396.99 193.32 1397.93 192.92C1398.89 192.52 1399.91 192.32 1401.01 192.32C1402.63 192.32 1403.97 192.68 1405.01 193.4C1406.07 194.12 1406.86 195.093 1407.37 196.32C1407.9 197.52 1408.17 198.867 1408.17 200.36V214H1404.81V201.32C1404.81 200.013 1404.65 198.92 1404.33 198.04C1404.03 197.133 1403.55 196.453 1402.89 196C1402.22 195.52 1401.35 195.28 1400.29 195.28C1398.66 195.28 1397.31 195.8 1396.25 196.84C1395.21 197.853 1394.69 199.347 1394.69 201.32V214H1391.33ZM1419.9 214.48C1417.71 214.48 1415.96 213.973 1414.66 212.96C1413.38 211.947 1412.74 210.533 1412.74 208.72C1412.74 206.907 1413.27 205.48 1414.34 204.44C1415.4 203.4 1417.1 202.667 1419.42 202.24L1426.94 200.84C1426.94 199.053 1426.51 197.72 1425.66 196.84C1424.83 195.96 1423.58 195.52 1421.9 195.52C1420.43 195.52 1419.27 195.853 1418.42 196.52C1417.56 197.16 1416.98 198.093 1416.66 199.32L1413.1 199.04C1413.5 197.04 1414.46 195.427 1415.98 194.2C1417.52 192.947 1419.5 192.32 1421.9 192.32C1424.62 192.32 1426.7 193.093 1428.14 194.64C1429.58 196.16 1430.3 198.267 1430.3 200.96V209.72C1430.3 210.2 1430.38 210.547 1430.54 210.76C1430.72 210.947 1431.02 211.04 1431.42 211.04H1432.26V214C1432.15 214.027 1431.98 214.04 1431.74 214.04C1431.5 214.067 1431.24 214.08 1430.98 214.08C1430.02 214.08 1429.23 213.933 1428.62 213.64C1428.03 213.32 1427.6 212.84 1427.34 212.2C1427.07 211.533 1426.94 210.667 1426.94 209.6L1427.34 209.68C1427.15 210.587 1426.7 211.413 1425.98 212.16C1425.26 212.88 1424.36 213.453 1423.3 213.88C1422.23 214.28 1421.1 214.48 1419.9 214.48ZM1420.22 211.52C1421.63 211.52 1422.83 211.253 1423.82 210.72C1424.83 210.16 1425.6 209.413 1426.14 208.48C1426.67 207.52 1426.94 206.453 1426.94 205.28V203.76L1420.06 205.04C1418.62 205.307 1417.62 205.72 1417.06 206.28C1416.52 206.813 1416.26 207.52 1416.26 208.4C1416.26 209.387 1416.6 210.16 1417.3 210.72C1418.02 211.253 1418.99 211.52 1420.22 211.52ZM1436.05 214V192.8H1439.13L1439.25 198.2L1438.85 197.84C1439.12 196.587 1439.58 195.56 1440.25 194.76C1440.92 193.933 1441.72 193.32 1442.65 192.92C1443.61 192.52 1444.64 192.32 1445.73 192.32C1447.36 192.32 1448.69 192.68 1449.73 193.4C1450.8 194.12 1451.58 195.093 1452.09 196.32C1452.62 197.52 1452.89 198.867 1452.89 200.36V214H1449.53V201.32C1449.53 200.013 1449.37 198.92 1449.05 198.04C1448.76 197.133 1448.28 196.453 1447.61 196C1446.94 195.52 1446.08 195.28 1445.01 195.28C1443.38 195.28 1442.04 195.8 1440.97 196.84C1439.93 197.853 1439.41 199.347 1439.41 201.32V214H1436.05ZM1467.11 214.48C1465.13 214.48 1463.41 214.027 1461.95 213.12C1460.51 212.213 1459.39 210.933 1458.59 209.28C1457.79 207.6 1457.39 205.64 1457.39 203.4C1457.39 201.16 1457.79 199.213 1458.59 197.56C1459.39 195.907 1460.51 194.627 1461.95 193.72C1463.41 192.787 1465.13 192.32 1467.11 192.32C1468.73 192.32 1470.17 192.613 1471.43 193.2C1472.71 193.76 1473.75 194.587 1474.55 195.68C1475.35 196.773 1475.87 198.107 1476.11 199.68L1472.59 199.92C1472.35 198.507 1471.73 197.427 1470.75 196.68C1469.76 195.907 1468.55 195.52 1467.11 195.52C1465.16 195.52 1463.64 196.227 1462.55 197.64C1461.45 199.027 1460.9 200.947 1460.9 203.4C1460.9 205.853 1461.45 207.787 1462.55 209.2C1463.64 210.587 1465.16 211.28 1467.11 211.28C1468.55 211.28 1469.76 210.88 1470.75 210.08C1471.73 209.28 1472.35 208.08 1472.59 206.48L1476.11 206.72C1475.87 208.293 1475.35 209.667 1474.55 210.84C1473.75 211.987 1472.71 212.88 1471.43 213.52C1470.17 214.16 1468.73 214.48 1467.11 214.48ZM1488.55 214.48C1486.55 214.48 1484.82 214.027 1483.35 213.12C1481.91 212.213 1480.79 210.933 1479.99 209.28C1479.22 207.6 1478.83 205.64 1478.83 203.4C1478.83 201.16 1479.22 199.213 1479.99 197.56C1480.79 195.907 1481.9 194.627 1483.31 193.72C1484.75 192.787 1486.44 192.32 1488.39 192.32C1490.23 192.32 1491.86 192.76 1493.27 193.64C1494.68 194.493 1495.78 195.747 1496.55 197.4C1497.35 199.053 1497.75 201.067 1497.75 203.44V204.44H1482.35C1482.48 206.707 1483.08 208.413 1484.15 209.56C1485.24 210.707 1486.71 211.28 1488.55 211.28C1489.94 211.28 1491.07 210.96 1491.95 210.32C1492.86 209.653 1493.48 208.787 1493.83 207.72L1497.43 208C1496.87 209.893 1495.8 211.453 1494.23 212.68C1492.68 213.88 1490.79 214.48 1488.55 214.48ZM1482.35 201.48H1494.07C1493.91 199.427 1493.31 197.92 1492.27 196.96C1491.26 196 1489.96 195.52 1488.39 195.52C1486.76 195.52 1485.42 196.027 1484.35 197.04C1483.31 198.027 1482.64 199.507 1482.35 201.48ZM1501.25 214V209.48H1505.77V214H1501.25Z" fill="white"/>
</svg>
